<?xml version="1.0" standalone="no"?>
<!DOCTYPE svg PUBLIC "-//W3C//DTD SVG 20010904//EN"
 "http://www.w3.org/TR/2001/REC-SVG-20010904/DTD/svg10.dtd">
<svg version="1.0" xmlns="http://www.w3.org/2000/svg"
 width="207.000000pt" height="207.000000pt" viewBox="0 0 207.000000 207.000000"
 preserveAspectRatio="xMidYMid meet">
<metadata>
Created by potrace 1.11, written by Peter Selinger 2001-2013
</metadata>
<g transform="translate(0.000000,207.000000) scale(0.100000,-0.100000)"
fill="#000000" stroke="none">
<path d="M951 1963 c-5 -10 -15 -46 -21 -80 -7 -35 -18 -67 -24 -71 -6 -5 -40
-12 -76 -16 -36 -3 -67 -11 -68 -16 -2 -6 -8 -8 -13 -4 -5 3 -9 -1 -8 -8 1
-22 14 -49 24 -50 6 0 21 -5 35 -10 14 -5 35 -11 48 -12 33 -4 48 -22 33 -40
-13 -15 -22 -119 -12 -133 9 -12 31 -14 31 -3 0 6 6 9 13 8 6 -2 11 2 10 7 -1
6 12 18 28 28 27 15 30 15 36 1 11 -29 -4 -428 -16 -432 -6 -2 -9 -7 -6 -12 5
-8 -40 -22 -75 -25 -20 -1 -53 15 -46 22 3 4 1 12 -5 20 -6 7 -9 13 -5 13 4 0
0 13 -9 30 -9 17 -13 30 -9 30 4 0 2 6 -3 13 -6 6 -18 39 -28 72 -10 33 -22
65 -27 72 -6 7 -11 24 -13 40 -1 15 -7 29 -13 31 -6 2 -9 9 -6 17 3 7 1 16 -5
20 -6 3 -11 15 -11 26 0 10 -4 19 -9 19 -5 0 -15 17 -22 38 -6 20 -20 49 -30
64 -11 14 -19 31 -19 36 0 20 -33 22 -51 3 -10 -10 -15 -22 -12 -25 4 -3 1 -6
-5 -6 -7 0 -11 -3 -10 -7 1 -5 -3 -18 -10 -30 -7 -13 -10 -23 -6 -23 3 0 2 -6
-3 -12 -11 -14 -46 -157 -49 -198 -1 -14 -3 -27 -4 -30 -12 -32 -20 -250 -11
-297 5 -23 5 -45 2 -49 -3 -3 -6 -10 -6 -16 0 -6 -9 -16 -20 -22 -11 -6 -23
-15 -27 -21 -4 -5 -8 -6 -8 -2 0 8 -70 -30 -80 -44 -3 -3 -15 -9 -28 -13 -12
-4 -20 -12 -17 -17 4 -5 -1 -9 -10 -9 -9 0 -22 -6 -30 -12 -7 -7 -40 -37 -73
-67 -56 -50 -59 -56 -50 -80 21 -52 33 -76 48 -97 8 -12 22 -32 30 -44 22 -33
150 -160 160 -160 6 0 10 -3 10 -7 1 -10 72 -54 83 -53 5 1 19 -10 33 -25 13
-14 24 -22 24 -18 0 4 4 4 8 -2 12 -16 109 -65 116 -58 3 3 6 2 6 -4 0 -9 23
-21 52 -27 3 0 10 -4 14 -8 4 -5 13 -8 20 -8 7 0 25 -5 41 -12 15 -6 31 -11
36 -10 4 1 7 -3 7 -9 0 -6 7 -8 16 -5 8 3 22 -1 31 -10 9 -8 22 -13 29 -10 7
3 16 1 18 -3 7 -11 317 -8 333 2 7 5 22 10 33 13 11 2 29 6 41 9 12 2 28 10
36 16 8 7 39 21 69 31 30 10 76 32 103 48 26 17 53 30 60 30 6 0 11 4 11 9 0
4 20 21 45 37 25 15 45 32 45 36 0 4 7 8 16 8 8 0 12 5 9 10 -3 6 -1 10 5 10
14 0 40 25 40 39 0 5 6 14 13 18 20 13 87 99 87 112 0 7 5 9 10 6 6 -3 13 1
17 11 3 9 21 39 40 66 18 28 33 59 33 70 0 23 -129 153 -161 163 -11 4 -19 10
-19 14 0 4 -21 18 -47 31 -27 13 -50 27 -53 31 -3 4 -12 9 -20 11 -8 2 -20 8
-27 15 -7 6 -18 13 -23 15 -7 2 -12 47 -14 118 -4 162 -14 260 -27 276 -6 8
-9 14 -6 14 4 0 0 18 -8 41 -8 23 -12 45 -9 50 3 5 1 9 -4 9 -5 0 -9 6 -10 13
-5 38 -9 54 -20 73 -6 12 -8 24 -5 28 3 3 1 6 -5 6 -7 0 -11 3 -10 8 5 18 -15
49 -41 65 -29 17 -30 17 -37 -5 -4 -13 -7 -26 -6 -30 1 -5 -2 -8 -8 -8 -5 0
-10 -6 -10 -14 0 -8 -5 -16 -10 -18 -6 -2 -11 -18 -13 -36 -1 -17 -5 -32 -9
-32 -4 0 -5 -9 -3 -19 2 -11 -3 -22 -10 -25 -8 -3 -14 -13 -13 -23 0 -10 -2
-29 -5 -43 -32 -132 -49 -198 -57 -212 -6 -10 -10 -32 -10 -50 -1 -49 -18 -64
-65 -60 -22 2 -48 4 -59 5 -34 3 -57 58 -56 139 0 15 -3 29 -8 31 -4 3 -9 52
-10 109 -2 56 -7 120 -11 140 -10 44 2 62 31 47 11 -6 33 -12 49 -14 25 -4 29
-1 29 20 0 28 -18 72 -38 97 -13 15 -11 21 20 50 19 18 44 40 56 47 29 20 34
38 16 55 -11 12 -21 13 -40 6 -18 -7 -23 -7 -18 2 4 6 3 9 -2 5 -5 -3 -28 -8
-51 -11 -44 -7 -50 -2 -60 59 -3 17 -9 33 -15 36 -5 3 -9 10 -7 14 3 12 -24
45 -38 45 -7 0 -17 -8 -22 -17z"/>
</g>
</svg>
